<?xml version="1.0" standalone="no"?>
<!DOCTYPE svg PUBLIC "-//W3C//DTD SVG 20010904//EN"
 "http://www.w3.org/TR/2001/REC-SVG-20010904/DTD/svg10.dtd">
<svg version="1.0" xmlns="http://www.w3.org/2000/svg"
 width="512.000000pt" height="512.000000pt" viewBox="0 0 512.000000 512.000000"
 preserveAspectRatio="xMidYMid meet">

<g transform="translate(0.000000,512.000000) scale(0.100000,-0.100000)"
fill="#000000" stroke="none">
<path d="M445 5110 c-199 -27 -361 -167 -422 -365 -17 -57 -18 -151 -18 -2185
0 -2034 1 -2128 18 -2185 53 -171 181 -299 352 -352 57 -17 151 -18 2185 -18
2034 0 2128 1 2185 18 171 53 299 181 352 352 17 57 18 151 18 2185 0 2034 -1
2128 -18 2185 -51 166 -172 291 -337 348 l-65 22 -2095 1 c-1152 1 -2122 -2
-2155 -6z m2110 -870 c470 -45 814 -230 949 -512 24 -51 49 -115 56 -143 52
-218 21 -502 -76 -698 -95 -193 -295 -380 -518 -483 -47 -21 -76 -40 -72 -47
38 -87 74 -197 116 -358 110 -418 155 -524 240 -559 78 -32 172 32 460 316
118 116 225 214 238 218 63 20 98 -65 90 -217 -4 -76 -9 -95 -50 -178 -133
-276 -409 -514 -718 -621 -89 -31 -103 -33 -230 -33 -103 0 -147 4 -185 18
-110 38 -210 148 -253 280 -34 104 -68 289 -101 552 -47 369 -80 535 -106 535
-33 0 -129 44 -175 81 -65 51 -90 101 -90 179 0 55 3 63 36 99 75 84 278 113
411 59 l63 -26 68 72 c121 127 172 235 193 407 29 238 -35 419 -186 528 -125
88 -256 116 -525 108 -108 -3 -219 -12 -268 -22 -130 -25 -300 -89 -483 -181
-185 -92 -256 -113 -315 -94 -45 15 -52 44 -24 107 82 185 353 402 645 516
236 92 509 125 810 97z m-469 -701 c17 -19 19 -38 18 -198 -1 -205 -23 -345
-105 -666 -57 -219 -112 -440 -141 -570 -19 -80 -22 -135 -27 -505 l-6 -416
-33 -66 c-37 -76 -74 -109 -177 -160 -151 -75 -221 -94 -327 -89 -35 1 -84 43
-109 93 -46 91 -63 348 -38 576 58 525 323 1350 568 1764 110 186 310 311 377
237z"/>
</g>
</svg>
